<svg width="151" height="76" viewBox="0 0 151 76" fill="none" xmlns="http://www.w3.org/2000/svg">
<path d="M140.363 74.9656C139.769 75.8968 138.533 76.1703 137.601 75.5763L122.426 65.8967C121.494 65.3027 121.221 64.0662 121.815 63.1349C122.409 62.2037 123.645 61.9303 124.577 62.5243L138.066 71.1284L146.67 57.6388C147.264 56.7075 148.501 56.4341 149.432 57.0281C150.363 57.6221 150.637 58.8585 150.043 59.7898L140.363 74.9656ZM0.553305 22.0207C6.9175 15.329 17.5197 9.24585 30.047 5.33265C42.6055 1.40968 57.2719 -0.388249 71.8662 1.65339C86.4769 3.6973 101.036 9.59483 113.278 21.0727C125.522 32.5514 135.332 49.5016 140.63 73.4583L136.724 74.3219C131.569 51.007 122.098 34.8245 110.542 23.9908C98.9858 13.1561 85.2271 7.56142 71.3121 5.61481C57.3808 3.66593 43.3133 5.37922 31.2396 9.15071C19.1348 12.932 9.20642 18.7265 3.45176 24.7773L0.553305 22.0207Z" fill="#004E36"/>
</svg>
