<svg width="704" height="132" viewBox="0 0 704 132" fill="none" xmlns="http://www.w3.org/2000/svg">
<path d="M204.411 36.0935L203.631 34.8121L204.411 36.0935ZM461.165 104.565L461.901 105.872L461.165 104.565ZM688.593 47.9045C688.922 48.6649 689.804 49.0149 690.565 48.6862L702.957 43.3302C703.717 43.0015 704.067 42.1186 703.739 41.3582C703.41 40.5977 702.527 40.2477 701.767 40.5764L690.752 45.3373L685.991 34.3222C685.662 33.5618 684.779 33.2117 684.019 33.5404C683.258 33.8691 682.908 34.752 683.237 35.5124L688.593 47.9045ZM32.488 56.1973C31.6106 56.9384 30.7358 57.7028 29.866 58.4881L31.8765 60.7148C32.7225 59.951 33.5723 59.2083 34.4237 58.4893L32.488 56.1973ZM24.8124 63.3416C23.189 64.9962 21.5994 66.7115 20.0595 68.47L22.3165 70.4463C23.8194 68.7301 25.3705 67.0564 26.9538 65.4426L24.8124 63.3416ZM15.6018 73.8624C14.1504 75.725 12.7665 77.6155 11.4676 79.5156L13.9442 81.2086C15.2063 79.3624 16.5532 77.5222 17.9681 75.7064L15.6018 73.8624ZM7.72268 85.432C6.49978 87.536 5.4009 89.6321 4.4511 91.6949L7.17612 92.9496C8.08169 90.9829 9.13554 88.9713 10.3164 86.9395L7.72268 85.432ZM1.89935 98.3208C1.15223 100.789 0.677468 103.184 0.540865 105.449L3.53543 105.63C3.65495 103.648 4.07524 101.487 4.77066 99.19L1.89935 98.3208ZM1.59249 112.868C2.55241 115.24 4.16339 117.247 6.48334 118.764L8.12553 116.254C6.31623 115.07 5.10331 113.546 4.37343 111.743L1.59249 112.868ZM13.3848 121.401C15.508 121.812 17.9047 122.01 20.5886 121.984L20.5594 118.984C18.0369 119.009 15.8451 118.821 13.9547 118.455L13.3848 121.401ZM27.6732 121.473C29.8182 121.202 32.1081 120.823 34.5486 120.327L33.952 117.387C31.5763 117.869 29.3607 118.236 27.298 118.496L27.6732 121.473ZM41.2828 118.764C43.4161 118.211 45.6477 117.583 47.9806 116.876L47.111 114.005C44.8139 114.701 42.6216 115.318 40.5305 115.859L41.2828 118.764ZM54.7423 114.703C56.7988 114.006 58.9251 113.254 61.1227 112.447L60.0878 109.631C57.9127 110.43 55.8105 111.173 53.7793 111.862L54.7423 114.703ZM67.674 109.955C69.7379 109.144 71.8589 108.288 74.0383 107.386L72.8908 104.614C70.7276 105.51 68.6236 106.359 66.5775 107.162L67.674 109.955ZM80.4655 104.663C82.5063 103.779 84.5943 102.858 86.7304 101.897L85.5001 99.1609C83.3762 100.116 81.3009 101.032 79.2733 101.91L80.4655 104.663ZM93.1397 98.9654C95.14 98.0354 97.1797 97.0734 99.2593 96.0789L97.965 93.3725C95.8949 94.3624 93.8651 95.3197 91.8749 96.245L93.1397 98.9654ZM105.619 92.9969C107.613 92.018 109.642 91.0107 111.706 89.9745L110.36 87.2934C108.304 88.3257 106.283 89.329 104.297 90.3039L105.619 92.9969ZM117.858 86.8536C119.924 85.7952 122.022 84.7094 124.155 83.5955L122.766 80.9364C120.64 82.0468 118.548 83.129 116.49 84.1837L117.858 86.8536ZM130.099 80.4645C132.109 79.397 134.147 78.3057 136.215 77.1902L134.791 74.55C132.729 75.6624 130.696 76.7506 128.692 77.8149L130.099 80.4645ZM142.426 73.8139C144.365 72.7527 146.327 71.6711 148.314 70.5688L146.859 67.9454C144.876 69.0451 142.919 70.1241 140.986 71.1825L142.426 73.8139ZM154.35 67.1994C156.387 66.0554 158.448 64.8904 160.535 63.7041L159.052 61.0961C156.97 62.2798 154.913 63.4423 152.881 64.5838L154.35 67.1994ZM166.39 60.3579C168.344 59.2349 170.32 58.0939 172.318 56.9347L170.812 54.34C168.818 55.4971 166.846 56.6359 164.895 57.7566L166.39 60.3579ZM178.374 53.4019C180.357 52.2397 182.361 51.06 184.385 49.8626L182.858 47.2805C180.837 48.4759 178.837 49.6535 176.857 50.8137L178.374 53.4019ZM190.189 46.4151C192.142 45.25 194.114 44.069 196.105 42.8718L194.558 40.3009C192.571 41.4963 190.602 42.6755 188.652 43.8387L190.189 46.4151ZM202.133 39.2316C203.148 38.6168 204.167 37.9979 205.19 37.3749L203.631 34.8121C202.609 35.4342 201.591 36.0522 200.578 36.6661L202.133 39.2316ZM205.19 37.3749C206.273 36.716 207.345 36.0723 208.405 35.4437L206.876 32.863C205.805 33.4976 204.723 34.1473 203.631 34.8121L205.19 37.3749ZM214.636 31.851C216.669 30.7126 218.659 29.6329 220.607 28.6103L219.213 25.9542C217.24 26.9898 215.226 28.0824 213.171 29.2334L214.636 31.851ZM227.181 25.297C229.317 24.267 231.398 23.3108 233.427 22.4257L232.227 19.676C230.162 20.577 228.046 21.5492 225.878 22.5948L227.181 25.297ZM240.117 19.6892C242.332 18.8469 244.477 18.0966 246.557 17.4345L245.647 14.5759C243.512 15.2558 241.314 16.0245 239.051 16.8852L240.117 19.6892ZM253.498 15.4877C255.859 14.9204 258.124 14.4782 260.301 14.1535L259.858 11.1863C257.589 11.5248 255.237 11.9844 252.797 12.5708L253.498 15.4877ZM267.129 13.4999C269.581 13.4054 271.907 13.4773 274.115 13.7015L274.418 10.7169C272.063 10.4777 269.598 10.4025 267.013 10.5021L267.129 13.4999ZM280.874 14.9431C283.135 15.5597 285.262 16.3587 287.272 17.3217L288.568 14.6163C286.396 13.5755 284.099 12.7132 281.663 12.0488L280.874 14.9431ZM293.144 20.8156C294.991 22.1456 296.733 23.6353 298.385 25.2672L300.494 23.1329C298.741 21.4014 296.881 19.8094 294.897 18.3811L293.144 20.8156ZM302.991 30.4505C304.404 32.2453 305.747 34.151 307.035 36.1518L309.558 34.5284C308.226 32.4583 306.827 30.4739 305.349 28.5951L302.991 30.4505ZM310.622 42.2063C311.738 44.2401 312.815 46.341 313.862 48.4958L316.56 47.1846C315.495 44.9931 314.396 42.8473 313.252 40.7631L310.622 42.2063ZM316.841 54.9159C317.796 57.0568 318.732 59.232 319.661 61.4301L322.424 60.2623C321.49 58.0524 320.546 55.8585 319.582 53.6947L316.841 54.9159ZM322.405 68.0086C323.313 70.203 324.223 72.4095 325.144 74.6099L327.911 73.4525C326.994 71.2587 326.086 69.0595 325.177 66.8615L322.405 68.0086ZM327.947 81.1938C328.906 83.3928 329.884 85.5768 330.893 87.7324L333.61 86.4608C332.615 84.3346 331.648 82.1756 330.697 79.9953L327.947 81.1938ZM334.069 94.1994C335.186 96.3556 336.345 98.4691 337.558 100.525L340.142 99.0003C338.961 96.9986 337.828 94.9343 336.734 92.8202L334.069 94.1994ZM341.455 106.629C342.848 108.637 344.312 110.567 345.861 112.404L348.154 110.469C346.673 108.713 345.265 106.858 343.92 104.919L341.455 106.629ZM350.871 117.705C352.654 119.378 354.541 120.932 356.543 122.349L358.276 119.9C356.393 118.568 354.613 117.102 352.923 115.517L350.871 117.705ZM362.852 126.138C364.995 127.212 367.253 128.141 369.635 128.91L370.557 126.055C368.32 125.333 366.204 124.462 364.196 123.456L362.852 126.138ZM376.714 130.645C379.025 131.045 381.437 131.308 383.958 131.427L384.099 128.431C381.697 128.317 379.408 128.066 377.225 127.689L376.714 130.645ZM391.336 131.373C393.625 131.238 395.995 130.996 398.45 130.641L398.02 127.672C395.645 128.016 393.36 128.249 391.16 128.378L391.336 131.373ZM405.548 129.346C407.835 128.847 410.189 128.257 412.615 127.574L411.801 124.687C409.43 125.355 407.133 125.929 404.909 126.415L405.548 129.346ZM419.394 125.48C421.62 124.735 423.901 123.916 426.241 123.02L425.168 120.218C422.866 121.099 420.625 121.904 418.441 122.636L419.394 125.48ZM432.839 120.357C434.972 119.453 437.15 118.49 439.376 117.465L438.121 114.74C435.922 115.752 433.772 116.704 431.668 117.595L432.839 120.357ZM445.988 114.307C448.015 113.305 450.08 112.255 452.182 111.156L450.792 108.497C448.709 109.586 446.665 110.626 444.659 111.617L445.988 114.307ZM458.603 107.709C459.693 107.109 460.792 106.497 461.901 105.872L460.428 103.258C459.328 103.878 458.238 104.486 457.157 105.08L458.603 107.709ZM461.901 105.872C462.951 105.28 463.998 104.691 465.042 104.102L463.57 101.489C462.525 102.077 461.478 102.667 460.428 103.258L461.901 105.872ZM471.275 100.593C473.345 99.4287 475.404 98.2708 477.452 97.1199L475.982 94.5046C473.934 95.6557 471.874 96.8139 469.804 97.9788L471.275 100.593ZM483.72 93.6002C485.798 92.4344 487.864 91.2763 489.918 90.126L488.452 87.5085C486.397 88.6592 484.331 89.8177 482.252 90.9838L483.72 93.6002ZM496.164 86.6319C498.254 85.4645 500.331 84.3057 502.394 83.1556L500.934 80.5351C498.869 81.6857 496.792 82.8451 494.701 84.013L496.164 86.6319ZM508.615 79.6941C510.716 78.5263 512.804 77.3682 514.877 76.22L513.424 73.5955C511.349 74.7444 509.26 75.9033 507.157 77.0717L508.615 79.6941ZM521.078 72.7927C523.193 71.6264 525.292 70.471 527.375 69.3268L525.931 66.6972C523.846 67.8424 521.745 68.9987 519.629 70.1659L521.078 72.7927ZM533.579 65.9281C535.701 64.768 537.807 63.6203 539.896 62.4853L538.463 59.8493C536.372 60.9856 534.265 62.1344 532.14 63.2955L533.579 65.9281ZM546.123 59.1114C548.25 57.9627 550.359 56.8279 552.449 55.7075L551.031 53.0636C548.939 54.1855 546.827 55.3217 544.698 56.4718L546.123 59.1114ZM558.697 52.3703C560.833 51.2339 562.949 50.1134 565.043 49.0093L563.644 46.3554C561.546 47.4614 559.427 48.5836 557.288 49.7217L558.697 52.3703ZM571.306 45.7243C573.457 44.6017 575.585 43.4976 577.689 42.4124L576.314 39.7461C574.206 40.8336 572.073 41.94 569.918 43.0646L571.306 45.7243ZM583.973 39.1922C586.14 38.0889 588.281 37.0072 590.394 35.9478L589.05 33.2659C586.931 34.3283 584.785 35.4127 582.612 36.5186L583.973 39.1922ZM596.749 32.7886C598.917 31.7203 601.055 30.6772 603.161 29.6601L601.857 26.9585C599.743 27.9793 597.598 29.0259 595.423 30.0976L596.749 32.7886ZM609.609 26.5821C611.776 25.5604 613.907 24.5687 616.002 23.6078L614.751 20.881C612.646 21.8465 610.506 22.8427 608.33 23.8687L609.609 26.5821ZM622.546 20.6549C624.769 19.6688 626.948 18.7213 629.081 17.8134L627.907 15.053C625.759 15.9672 623.566 16.9207 621.33 17.9124L622.546 20.6549ZM635.608 15.1024C637.866 14.1888 640.066 13.3254 642.209 12.5134L641.146 9.7081C638.981 10.5286 636.759 11.4002 634.482 12.3213L635.608 15.1024ZM648.913 10.0757C651.242 9.26764 653.49 8.53048 655.657 7.86618L654.778 4.9979C652.572 5.67399 650.289 6.42271 647.93 7.24153L648.913 10.0757ZM662.458 5.95494C664.869 5.34501 667.155 4.84627 669.314 4.46145L668.788 1.50798C666.549 1.90701 664.192 2.42163 661.722 3.04655L662.458 5.95494ZM676.173 3.59562C678.728 3.42803 681.022 3.48091 683.056 3.75214L683.452 0.778457C681.181 0.475647 678.684 0.424463 675.976 0.602053L676.173 3.59562ZM689.261 5.66935C691.141 6.72365 692.588 8.17149 693.616 10.0552L696.249 8.6184C694.945 6.22831 693.089 4.37656 690.729 3.05282L689.261 5.66935ZM695.38 16.3182C695.571 18.2958 695.536 20.5376 695.256 23.0603L698.238 23.3913C698.536 20.7071 698.581 18.2536 698.367 16.03L695.38 16.3182ZM694.046 29.9165C693.553 32.0327 692.932 34.2867 692.181 36.6823L695.043 37.5804C695.814 35.1228 696.455 32.7958 696.967 30.5971L694.046 29.9165ZM689.89 43.3369C689.475 44.4515 689.037 45.5913 688.575 46.7565L691.364 47.8621C691.834 46.678 692.279 45.5183 692.702 44.3828L689.89 43.3369Z" fill="#ACF261"/>
</svg>
