<svg width="49" height="48" viewBox="0 0 49 48" fill="none" xmlns="http://www.w3.org/2000/svg">
<path d="M24.3482 0.000303844C37.5054 -0.0653454 48.6532 10.5161 48.7166 23.1327C48.7862 36.754 38.1807 47.3275 24.4014 47.3712C11.0949 47.413 0.0616649 36.8256 0.00027831 23.9543C-0.0631545 10.6812 10.7245 0.0679425 24.3462 0.000303844H24.3482ZM24.3994 11.3616C22.6315 11.3616 20.8635 11.3397 19.0956 11.3656C15.087 11.4273 11.766 14.6083 11.7026 18.5134C11.6474 21.951 11.6494 25.3887 11.7026 28.8263C11.7619 32.7772 15.128 35.9701 19.1815 35.9861C22.6499 36 26.1182 36.002 29.5866 35.9861C33.3229 35.9662 36.6869 33.193 36.9222 29.5763C37.1637 25.8582 37.223 22.1022 36.998 18.3861C36.734 14.0115 33.5173 11.3656 28.9911 11.3636C27.4605 11.3636 25.93 11.3636 24.4014 11.3636L24.3994 11.3616Z" fill="#88EB3F"/>
<path d="M24.3981 11.3611C25.9287 11.3611 27.4593 11.3611 28.9878 11.3611C33.514 11.3631 36.7307 14.009 36.9947 18.3836C37.2197 22.1017 37.1604 25.8557 36.9189 29.5738C36.6836 33.1905 33.3217 35.9637 29.5832 35.9836C26.1149 36.0015 22.6466 35.9975 19.1782 35.9836C15.1247 35.9677 11.7566 32.7747 11.6993 28.8238C11.6481 25.3862 11.6461 21.9486 11.6993 18.5109C11.7627 14.6058 15.0837 11.4248 19.0923 11.3631C20.8602 11.3353 22.6281 11.3591 24.3961 11.3591L24.3981 11.3611ZM24.3756 13.7424C22.7775 13.7424 21.1794 13.7424 19.5813 13.7424C16.4404 13.7464 14.1732 15.7835 14.1056 18.8093C14.034 22.048 14.0361 25.2887 14.1036 28.5274C14.167 31.5652 16.422 33.6063 19.5609 33.6083C22.8246 33.6083 26.0904 33.6142 29.3541 33.6083C32.272 33.6023 34.5637 31.4975 34.6169 28.6468C34.6804 25.3424 34.6763 22.0341 34.6169 18.7298C34.5658 15.8372 32.274 13.7504 29.2743 13.7424C27.6414 13.7384 26.0105 13.7424 24.3777 13.7424H24.3756Z" fill="#004E36"/>
<path d="M24.376 13.742C26.0089 13.742 27.6397 13.738 29.2726 13.742C32.2724 13.75 34.5641 15.8348 34.6153 18.7294C34.6746 22.0337 34.6787 25.342 34.6153 28.6464C34.5621 31.4971 32.2703 33.6019 29.3524 33.6079C26.0887 33.6138 22.8229 33.6099 19.5592 33.6079C16.4203 33.6079 14.1654 31.5648 14.1019 28.527C14.0344 25.2883 14.0324 22.0476 14.104 18.8089C14.1715 15.7831 16.4387 13.746 19.5797 13.742C21.1778 13.742 22.7759 13.742 24.374 13.742H24.376ZM18.221 23.657C18.2148 27.0628 20.9936 29.7724 24.4742 29.7604C27.9507 29.7485 30.7807 26.9932 30.752 23.6491C30.7254 20.3408 27.9221 17.6133 24.5151 17.5775C21.0611 17.5417 18.2271 20.2791 18.221 23.657ZM31.0119 15.7533C30.1791 15.7771 29.5652 16.4117 29.5754 17.2413C29.5857 18.039 30.265 18.6995 31.0692 18.6935C31.8652 18.6876 32.5813 17.9973 32.5875 17.2353C32.5936 16.4018 31.8795 15.7294 31.0119 15.7552V15.7533Z" fill="#88EB3F"/>
<path d="M18.2188 23.6599C18.2249 20.282 21.0589 17.5446 24.5129 17.5804C27.9219 17.6162 30.7232 20.3417 30.7498 23.652C30.7764 26.9961 27.9465 29.7514 24.472 29.7633C20.9914 29.7753 18.2126 27.0658 18.2188 23.6599ZM24.4515 27.5014C26.6676 27.5014 28.4151 25.8304 28.4233 23.6977C28.4314 21.5771 26.6778 19.8602 24.4843 19.8463C22.2948 19.8324 20.5412 21.5194 20.5187 23.6639C20.4962 25.7906 22.2478 27.5014 24.4515 27.5014Z" fill="#004E36"/>
<path d="M31.0108 15.752C31.8784 15.7281 32.5905 16.3985 32.5864 17.2321C32.5802 17.994 31.8641 18.6843 31.0681 18.6903C30.2639 18.6963 29.5825 18.0358 29.5743 17.2381C29.5641 16.4085 30.178 15.7739 31.0108 15.75V15.752Z" fill="#004E36"/>
<path d="M24.4526 27.497C22.2488 27.497 20.4972 25.7862 20.5197 23.6595C20.5423 21.513 22.2959 19.826 24.4853 19.8419C26.6789 19.8558 28.4325 21.5727 28.4243 23.6933C28.4161 25.8259 26.6686 27.499 24.4526 27.497Z" fill="#88EB3F"/>
</svg>
