<svg width="50" height="48" viewBox="0 0 50 48" fill="none" xmlns="http://www.w3.org/2000/svg">
<path d="M49.4883 23.8048C49.5027 36.9327 38.6577 47.4963 25.1301 47.5301C11.7172 47.5639 0.720797 36.879 0.71875 23.8108C0.716704 10.6173 11.5719 0.017927 25.1035 2.26367e-05C38.6106 -0.0178817 49.474 10.5875 49.4883 23.8029V23.8048ZM29.9961 18.9766C30.1106 19.096 30.2252 19.2174 30.3398 19.3367C30.0042 19.7963 29.7321 20.3215 29.3228 20.7074C26.9513 22.9454 24.547 25.1477 22.159 27.3698C21.1646 28.2949 21.1728 29.019 22.2695 29.8326C23.5423 30.7756 24.8437 31.6848 26.1799 32.5382C27.7411 33.5369 29.2922 34.5833 30.9598 35.383C32.7564 36.2444 33.7959 35.566 34.1049 33.6443C34.8169 29.198 35.5638 24.7578 36.2677 20.3095C36.5521 18.5111 36.8141 16.7068 36.9818 14.8964C37.0801 13.8441 36.5787 13.4283 35.4963 13.5476C34.9356 13.6093 34.3791 13.8182 33.8491 14.0311C26.6137 16.9276 19.3844 19.8341 12.1551 22.7445C11.4655 23.023 10.7534 23.2856 10.1293 23.6716C9.80601 23.8705 9.43974 24.3539 9.48066 24.6603C9.51954 24.9666 9.99835 25.3327 10.3626 25.462C11.7663 25.9613 13.1966 26.397 14.6289 26.8187C16.0408 27.2325 17.332 27.0694 18.5966 26.21C21.6659 24.1212 24.7905 22.1099 27.9089 20.0907C28.5678 19.665 29.2983 19.3467 29.9961 18.9786V18.9766Z" fill="#88EB3F"/>
<path d="M29.9987 18.9787C29.301 19.3467 28.5684 19.665 27.9116 20.0907C24.7931 22.108 21.6686 24.1212 18.5992 26.2101C17.3347 27.0695 16.0435 27.2326 14.6316 26.8188C13.1993 26.399 11.769 25.9634 10.3653 25.462C10.001 25.3327 9.52221 24.9647 9.48333 24.6603C9.44445 24.354 9.80868 23.8705 10.132 23.6716C10.7561 23.2857 11.4682 23.0231 12.1577 22.7446C19.387 19.8341 26.6163 16.9276 33.8518 14.0311C34.3817 13.8202 34.9363 13.6114 35.499 13.5477C36.5814 13.4263 37.0827 13.8441 36.9845 14.8965C36.8167 16.7068 36.5548 18.5112 36.2704 20.3096C35.5665 24.7578 34.8217 29.1981 34.1075 33.6443C33.7986 35.5681 32.7591 36.2464 30.9625 35.383C29.2928 34.5833 27.7438 33.5369 26.1825 32.5382C24.8463 31.6828 23.5449 30.7737 22.2722 29.8327C21.1754 29.021 21.1672 28.2949 22.1617 27.3699C24.5496 25.1497 26.956 22.9455 29.3255 20.7074C29.7348 20.3215 30.0069 19.7983 30.3425 19.3368C30.2279 19.2174 30.1133 19.0961 29.9987 18.9767V18.9787Z" fill="#004E36"/>
</svg>
