<svg width="141" height="65" viewBox="0 0 141 65" fill="none" xmlns="http://www.w3.org/2000/svg">
<path d="M132.502 62.9678C132.048 63.9748 130.864 64.423 129.857 63.969L113.448 56.5705C112.441 56.1165 111.992 54.9321 112.446 53.9252C112.9 52.9182 114.085 52.47 115.092 52.924L129.678 59.5005L136.254 44.9145C136.708 43.9076 137.893 43.4593 138.899 43.9133C139.906 44.3673 140.355 45.5517 139.901 46.5586L132.502 62.9678ZM1.80252 22.6808L0.22624 21.4498C5.09716 15.2126 13.8475 9.41219 24.5576 5.47973C35.3073 1.53275 48.2129 -0.601915 61.5489 0.658208C88.3595 3.19155 116.648 19.4247 132.549 61.4378L130.679 62.1458L128.808 62.8537C113.43 22.22 86.4136 7.0255 61.1726 4.64047C48.4828 3.4414 36.176 5.47488 25.9363 9.23462C15.657 13.0089 7.64119 18.4538 3.3788 23.9118L1.80252 22.6808Z" fill="#004E36"/>
</svg>
