<svg width="49" height="48" viewBox="0 0 49 48" fill="none" xmlns="http://www.w3.org/2000/svg">
<path d="M24.9313 0.200422C38.8169 0.474955 49.5043 11.6314 48.9211 25.0238C48.3625 37.8632 36.9528 48.0985 23.988 47.6231C10.6241 47.1317 -0.202451 36.5482 0.231347 23.1399C0.654914 10.0637 11.6677 0.0731023 24.9292 0.200422H24.9313ZM12.0176 36.1285C14.0576 35.6013 15.9054 35.0781 17.7777 34.6663C18.3506 34.541 19.0586 34.5748 19.5968 34.7896C22.0604 35.7724 24.5752 36.1106 27.1862 35.5774C34.3254 34.1192 38.6348 27.1962 36.652 20.4005C34.7204 13.7779 27.3049 10.0359 20.626 12.3137C13.7609 14.6552 10.4174 22.0517 13.3271 28.5609C13.6791 29.3467 13.7343 30.0151 13.4827 30.8228C12.9568 32.5158 12.5312 34.2366 12.0155 36.1285H12.0176Z" fill="#88EB3F"/>
<path d="M12.0176 36.1307C12.5332 34.2408 12.9588 32.518 13.4847 30.825C13.7344 30.0174 13.6791 29.3489 13.3292 28.5631C10.4195 22.0539 13.763 14.6574 20.6281 12.3159C27.3069 10.0381 34.7224 13.7801 36.6541 20.4027C38.6368 27.2004 34.3275 34.1214 27.1882 35.5796C24.5773 36.1128 22.0625 35.7746 19.5988 34.7918C19.0607 34.577 18.3527 34.5412 17.7797 34.6685C15.9054 35.0803 14.0577 35.6035 12.0196 36.1307H12.0176ZM15.4327 32.8204C16.2185 32.6175 16.7914 32.522 17.3234 32.323C18.4652 31.8993 19.4454 32.0286 20.5831 32.5737C24.2171 34.3204 28.6349 33.5485 31.5569 30.835C34.5996 28.0061 35.5552 23.7946 33.9919 20.0884C31.8004 14.8922 25.5615 12.5228 20.4173 14.9359C15.136 17.4127 13.1471 23.4862 15.9279 28.4955C16.1816 28.951 16.1939 29.6075 16.1182 30.1447C15.9995 30.9782 15.709 31.7879 15.4348 32.8184L15.4327 32.8204Z" fill="#004E36"/>
<path d="M15.432 32.8181C15.7062 31.7896 15.9968 30.9779 16.1155 30.1443C16.1912 29.6072 16.1789 28.9507 15.9252 28.4952C13.1444 23.4839 15.1333 17.4124 20.4146 14.9356C25.5588 12.5225 31.7997 14.8918 33.9892 20.0881C35.5525 23.7943 34.5969 28.0058 31.5542 30.8347C28.6342 33.5482 24.2165 34.32 20.5803 32.5734C19.4426 32.0263 18.4604 31.899 17.3207 32.3227C16.7887 32.5197 16.2157 32.6171 15.43 32.82L15.432 32.8181ZM18.6221 21.0111C18.751 21.4985 18.8022 22.0436 19.0313 22.5052C20.6806 25.8354 23.2527 28.159 27.0136 28.9965C27.7912 29.1696 28.7529 28.907 29.5346 28.6105C30.3162 28.3141 30.9015 27.5721 30.7071 26.7127C30.4554 25.6046 29.3197 25.35 28.3928 24.9998C27.6091 24.7034 27.0996 25.1908 26.7579 25.8214C26.4243 26.4362 26.0008 26.4461 25.4155 26.1596C24.0466 25.4912 22.913 24.5681 22.1191 23.2969C21.9677 23.0542 21.9247 22.525 22.0843 22.3599C22.9785 21.4329 22.7657 20.5098 22.2357 19.537C21.9022 18.9243 21.6444 18.2101 20.7604 18.226C19.8191 18.2419 19.2953 18.8606 18.9659 19.6245C18.7858 20.0403 18.7428 20.5098 18.6241 21.0131L18.6221 21.0111Z" fill="#88EB3F"/>
<path d="M18.6231 21.0139C18.7418 20.5126 18.7848 20.0411 18.9649 19.6254C19.2943 18.8634 19.8202 18.2447 20.7594 18.2268C21.6434 18.2109 21.9012 18.9251 22.2347 19.5378C22.7647 20.5106 22.9775 21.4337 22.0833 22.3607C21.9237 22.5278 21.9667 23.057 22.1181 23.2977C22.9141 24.567 24.0456 25.492 25.4145 26.1604C26.0018 26.4469 26.4233 26.437 26.7569 25.8222C27.0986 25.1916 27.6101 24.7042 28.3918 25.0006C29.3208 25.3508 30.4544 25.6054 30.7061 26.7135C30.9005 27.5709 30.3132 28.3129 29.5336 28.6113C28.7519 28.9078 27.7902 29.1704 27.0126 28.9973C23.2537 28.1617 20.6796 25.8362 19.0303 22.506C18.8012 22.0444 18.75 21.4993 18.6211 21.0119L18.6231 21.0139Z" fill="#004E36"/>
</svg>
