<svg width="50" height="48" viewBox="0 0 50 48" fill="none" xmlns="http://www.w3.org/2000/svg">
<path d="M24.8672 0.19929C38.1451 0.16746 49.1865 10.7748 49.2151 23.5923C49.2458 37.0086 38.6075 47.5205 24.9245 47.6001C11.6118 47.6776 0.515133 36.9927 0.48444 24.0658C0.453747 10.8504 11.3028 0.23311 24.8692 0.19929H24.8672ZM24.8672 15.8238C22.69 15.8238 20.5108 15.8119 18.3336 15.8258C15.3072 15.8457 13.0912 17.9107 13.0114 20.847C12.9561 22.8622 12.9602 24.8794 13.0114 26.8947C13.0851 29.833 15.297 31.9258 18.3111 31.9377C22.6675 31.9536 27.0219 31.9556 31.3783 31.9377C34.5049 31.9258 36.6759 29.7793 36.6902 26.7196C36.7005 24.8357 36.7005 22.9517 36.6902 21.0678C36.6739 17.9584 34.5008 15.8417 31.2984 15.8238C29.154 15.8119 27.0116 15.8218 24.8672 15.8218V15.8238Z" fill="#88EB3F"/>
<path d="M24.8684 15.8233C27.0128 15.8233 29.1552 15.8154 31.2996 15.8253C34.4999 15.8412 36.675 17.9579 36.6914 21.0693C36.7016 22.9532 36.7016 24.8372 36.6914 26.7211C36.675 29.7808 34.504 31.9253 31.3794 31.9392C27.023 31.9571 22.6687 31.9551 18.3123 31.9392C15.2982 31.9273 13.0862 29.8345 13.0126 26.8962C12.9614 24.8809 12.9573 22.8617 13.0126 20.8485C13.0944 17.9122 15.3105 15.8472 18.3348 15.8273C20.512 15.8134 22.6912 15.8253 24.8684 15.8253V15.8233ZM28.9322 24.2702C28.836 24.0673 28.8196 23.938 28.75 23.9002C26.8205 22.8597 24.9032 21.8014 22.9429 20.8166C22.419 20.5541 21.9279 20.747 21.9279 21.4692C21.9279 23.1184 21.9341 24.7675 21.9259 26.4167C21.9218 27.113 22.3515 27.3657 22.9101 27.115C24.9318 26.2078 26.9207 25.2271 28.9301 24.2682L28.9322 24.2702Z" fill="#004E36"/>
<path d="M28.932 24.2701C26.9226 25.227 24.9337 26.2077 22.912 27.1169C22.3513 27.3675 21.9237 27.1169 21.9278 26.4186C21.9359 24.7694 21.9319 23.1202 21.9298 21.471C21.9298 20.7509 22.4209 20.5559 22.9447 20.8185C24.903 21.8033 26.8223 22.8616 28.7519 23.902C28.8215 23.9398 28.8378 24.0691 28.934 24.2721L28.932 24.2701Z" fill="#88EB3F"/>
</svg>
